<svg version="1.1" id="Layer_1" xmlns="http://www.w3.org/2000/svg" xmlns:xlink="http://www.w3.org/1999/xlink" x="0px" y="0px"
	 width="100%" viewBox="0 0 1024 1024" enable-background="new 0 0 1024 1024" xml:space="preserve">
<path fill="#000000" opacity="1.000000" stroke="none" 
	d="
M390.248322,713.258911 
	C373.024384,729.486267 356.064911,745.476501 339.216400,761.362122 
	C339.501251,762.923157 340.531708,762.519714 341.231964,762.522522 
	C354.730499,762.576294 368.229248,762.572327 381.727722,762.635986 
	C383.884247,762.646118 385.559296,761.838440 387.086182,760.399658 
	C403.325073,745.097656 419.581604,729.814392 436.777435,713.637817 
	C426.289642,713.637817 416.835632,713.637817 407.809357,713.637817 
	C406.697449,711.672363 407.675018,711.043335 408.341339,710.402710 
	C414.466949,704.512573 420.674652,698.706665 426.740906,692.756348 
	C429.524933,690.025513 432.537231,688.769409 436.560974,688.939148 
	C444.047211,689.255127 451.557312,688.959229 459.055115,689.072815 
	C461.915009,689.116028 464.117371,688.183716 466.219696,686.253174 
	C487.818054,666.419617 509.456421,646.629456 531.144226,626.893860 
	C533.992615,624.301880 534.994324,621.597717 534.385925,617.638672 
	C531.619934,599.637817 549.263672,582.852783 567.078430,586.787903 
	C572.033936,587.882568 575.228760,586.766235 578.603882,583.463501 
	C585.986206,576.239624 593.567932,569.216919 601.162231,562.213989 
	C603.396667,560.153503 604.302490,558.204834 603.913757,554.884521 
	C601.955078,538.153442 614.562622,523.272766 630.715027,522.765137 
	C646.956726,522.254639 660.048462,535.931702 659.304321,552.632507 
	C658.548401,569.598694 642.389343,582.168274 625.860229,578.247192 
	C621.899719,577.307678 619.380920,578.076111 616.584473,580.759705 
	C608.772400,588.256531 600.754333,595.540710 592.742676,602.826538 
	C590.513428,604.853760 589.530396,606.695557 590.027344,610.106750 
	C592.913757,629.920227 576.971252,645.107971 557.349487,641.217834 
	C553.004028,640.356323 550.357361,641.459167 547.305420,644.343384 
	C533.501343,657.389160 519.456482,670.180176 505.501099,683.065857 
	C504.292847,684.181580 502.828217,685.077881 501.947906,687.428406 
	C508.180237,687.877075 513.959045,686.451111 519.602722,685.291992 
	C575.284241,673.855713 620.270874,645.438538 654.642822,600.082886 
	C676.306580,571.496277 689.938721,539.549011 695.829407,504.251251 
	C696.645874,499.359131 698.506531,495.658752 703.014160,493.045319 
	C709.751770,489.138916 715.100159,483.328857 721.572815,478.039154 
	C722.983032,483.142273 722.475159,487.762024 722.087219,492.262604 
	C719.245789,525.230774 709.848083,556.294312 693.700073,585.140320 
	C665.931885,634.743652 626.164307,671.312805 573.888550,694.067078 
	C552.826172,703.235046 530.907227,709.274353 508.127380,711.996460 
	C498.383392,713.160828 488.548584,713.782837 478.710266,713.324280 
	C475.159576,713.158691 472.400726,714.153748 469.741119,716.646362 
	C451.873413,733.393311 433.870087,749.995544 415.916290,766.650696 
	C409.321655,772.768433 402.696472,778.854492 396.186401,785.061218 
	C394.429199,786.736511 392.441467,787.069092 390.238464,787.068726 
	C355.072784,787.062927 319.907074,787.058899 284.741394,787.033630 
	C282.784790,787.032227 280.762329,787.073303 279.192078,785.609558 
	C279.232300,783.073792 281.196106,782.053101 282.578278,780.757080 
	C313.936859,751.354187 345.370880,722.031738 376.712494,692.610840 
	C396.635162,673.909119 416.758881,655.404968 436.215607,636.226990 
	C475.172882,597.827881 460.854675,525.743896 410.602783,505.650513 
	C406.033295,503.823334 401.425934,502.922821 396.483124,503.145844 
	C359.045990,504.835175 328.307983,491.185181 305.268921,461.681549 
	C288.367798,440.038025 281.817017,415.067291 284.249054,387.600281 
	C286.164581,365.967041 294.574554,347.144928 307.610260,330.161743 
	C309.708832,327.427704 310.017151,325.070648 308.775513,321.923676 
	C298.814667,296.677856 288.969574,271.386322 279.112640,246.099594 
	C278.341370,244.121017 277.142120,242.214462 277.624573,239.888992 
	C279.136902,238.625076 280.468842,239.730621 281.769958,240.251404 
	C319.487244,255.348511 357.299957,270.214996 394.854309,285.707672 
	C410.370331,292.108673 426.343140,297.609528 440.808899,306.413879 
	C455.593719,315.412384 467.504700,327.268799 476.957397,341.740326 
	C479.601288,345.787964 479.501495,348.536621 475.001587,350.931793 
	C470.949768,353.088501 467.994202,356.554169 465.474152,360.324005 
	C462.986481,364.045380 460.983734,363.521362 458.923889,359.953857 
	C454.489136,352.273193 449.250580,345.266907 442.762909,339.102631 
	C402.090851,300.458130 337.994904,313.625214 314.973938,365.015564 
	C301.409729,395.295288 308.418671,433.177460 332.863190,456.059296 
	C349.534973,471.665222 369.298309,480.331757 392.333099,478.486115 
	C417.101471,476.501617 437.511566,465.492645 452.576416,445.366302 
	C455.665955,441.238708 458.455261,436.886688 461.407410,432.655151 
	C461.576355,432.412964 461.966888,432.325409 462.372559,432.100311 
	C464.703491,432.911804 465.570129,435.269012 467.041748,436.963074 
	C469.572174,439.875977 472.079865,442.798676 475.662842,444.419006 
	C478.473419,445.690063 479.375702,447.589813 478.168732,450.411072 
	C477.406891,452.191833 478.053162,453.568939 479.069885,455.022308 
	C489.765503,470.311096 500.421570,485.627563 511.099792,500.928528 
	C511.569397,501.601349 512.147461,502.198425 512.719543,502.884216 
	C515.210083,502.199402 515.866638,499.903534 517.037903,498.241364 
	C526.632874,484.625580 536.131531,470.941864 545.645996,457.269409 
	C547.341125,454.833496 549.476929,452.555481 547.882812,449.117218 
	C547.408691,448.094635 547.643738,446.636810 548.728516,445.932251 
	C554.483887,442.194214 558.509338,436.569550 563.669800,431.905182 
	C566.764038,434.307312 568.133545,437.602966 570.079346,440.436584 
	C586.768738,464.739990 609.562622,478.939362 639.278564,478.430573 
	C671.290161,477.882477 695.479004,462.411957 709.513733,433.584625 
	C724.153381,403.514557 720.994934,373.901276 700.722046,347.483032 
	C670.841980,308.545563 616.111389,307.528412 583.739746,338.732574 
	C577.308899,344.931488 572.130188,351.970703 567.490479,359.527374 
	C564.644348,364.162872 563.748291,364.159790 560.387878,359.912415 
	C557.251709,355.948517 553.534912,352.598389 549.492004,349.672668 
	C546.834167,347.749329 546.822876,346.095276 548.381226,343.458405 
	C560.055359,323.705109 576.707642,309.433502 597.404724,300.114319 
	C631.579102,284.726807 666.658875,271.501129 701.431946,257.547821 
	C715.341797,251.966232 729.250488,246.381805 743.172546,240.830795 
	C744.804993,240.179916 746.372498,238.907196 748.374329,239.874741 
	C749.381531,241.641678 748.188721,243.071426 747.614136,244.538513 
	C737.716919,269.806854 727.876404,295.098175 717.795593,320.293274 
	C715.967163,324.863159 716.499573,328.118927 719.600708,332.059662 
	C748.636230,368.956085 750.013123,420.260895 723.262939,458.798920 
	C688.384094,509.047577 618.333801,518.247437 571.486023,478.777496 
	C564.641541,473.010956 565.591614,470.507080 558.591187,480.830902 
	C544.475159,501.648315 530.087036,522.281189 515.790283,542.975830 
	C515.154053,543.896790 514.628479,545.039246 512.545349,545.281372 
	C495.976837,521.607178 479.209320,497.648651 462.125885,473.238708 
	C453.621094,479.131287 446.223114,486.168427 436.484497,490.451233 
	C439.119720,494.081055 442.648041,495.760193 445.413818,498.257294 
	C472.370758,522.595154 485.172882,552.762146 482.425415,589.074402 
	C480.266083,617.613770 468.141602,641.195496 446.691650,660.387146 
	C427.572723,677.493164 409.209473,695.443909 390.248322,713.258911 
M700.358215,297.982880 
	C702.236877,293.002655 704.115479,288.022430 706.346436,282.108246 
	C693.636597,286.754303 682.376343,291.415985 670.252380,296.904724 
	C673.619385,298.250519 676.054077,299.145172 678.421814,300.191132 
	C680.999512,301.329895 683.570557,302.506592 686.048218,303.845062 
	C696.064026,309.256012 696.050354,309.281342 700.358215,297.982880 
M343.570068,301.905975 
	C346.845215,299.916412 351.052032,299.652161 354.319092,296.287476 
	C343.203003,290.959137 332.196198,286.834747 320.095154,282.539886 
	C323.185913,292.250458 326.279999,300.630951 330.329437,308.908905 
	C335.019806,306.425781 338.961456,304.339020 343.570068,301.905975 
M568.283142,607.048828 
	C564.070312,604.257202 559.738037,603.925049 555.948303,607.459717 
	C552.719727,610.471069 552.149048,614.434631 554.213806,618.436584 
	C556.730042,623.313599 562.246826,624.752930 566.948853,621.936646 
	C572.480103,618.623718 573.145752,613.609619 568.283142,607.048828 
M631.491943,542.084106 
	C625.609253,543.060608 622.309631,546.401978 622.351990,551.339783 
	C622.387939,555.526550 626.462097,559.888062 630.872986,560.461731 
	C634.733215,560.963745 639.148071,557.512573 640.306396,553.087219 
	C641.649719,547.955566 638.507324,543.663452 631.491943,542.084106 
z"/>
<path fill="#000000" opacity="1.000000" stroke="none" 
	d="
M511.527130,339.381775 
	C516.012329,338.592896 517.719727,340.890869 518.125305,344.531738 
	C518.327209,346.343994 518.210693,348.193390 518.212158,350.026001 
	C518.217346,356.408661 521.478027,358.635376 527.674622,356.633209 
	C529.570129,356.020782 529.706421,354.666779 529.739441,353.133301 
	C529.800293,350.301544 529.700195,347.460022 529.900940,344.639252 
	C530.125366,341.484772 531.553650,339.016296 535.100769,339.177399 
	C538.426208,339.328400 539.498779,341.691040 539.414368,344.753845 
	C539.373047,346.252075 539.428528,347.753082 539.446533,349.252808 
	C539.497070,353.449554 539.699097,356.987091 545.601440,357.332825 
	C550.357849,357.611450 552.423279,361.886536 553.137512,366.164856 
	C553.609741,368.993530 554.856506,369.775421 557.424438,369.697174 
	C560.419617,369.605865 563.429016,369.607452 566.417969,369.795624 
	C569.246643,369.973633 571.255676,371.446320 571.174866,374.491821 
	C571.097534,377.404205 569.272705,379.085663 566.385193,379.245911 
	C563.227600,379.421082 560.055908,379.365723 556.890320,379.362183 
	C554.707214,379.359711 553.430237,380.213440 553.360779,382.564789 
	C553.287415,385.050140 554.695862,385.676392 556.844238,385.673187 
	C570.175903,385.653412 583.507874,385.615021 596.838867,385.708069 
	C599.544800,385.726959 600.550659,384.247375 601.511597,382.101685 
	C607.576233,368.559479 617.574402,360.077881 632.485229,357.390564 
	C653.707336,353.565796 675.906433,370.183807 678.215515,391.972931 
	C680.696167,415.382233 666.062073,434.381104 642.912048,437.805908 
	C627.636292,440.065796 609.627014,430.151520 602.942200,415.192932 
	C600.915466,410.657623 598.483704,409.087280 593.588135,409.243195 
	C581.934326,409.614258 570.261169,409.357117 558.596130,409.413300 
	C556.375549,409.423981 553.378967,408.783417 553.510071,412.422729 
	C553.626099,415.642517 556.438049,414.931946 558.479065,415.113129 
	C560.966797,415.333984 563.461121,415.480469 565.952881,415.655914 
	C569.003601,415.870728 571.162781,417.275146 571.194580,420.507080 
	C571.230652,424.175629 568.656006,425.211914 565.485413,425.303406 
	C564.486145,425.332245 563.480225,425.397308 562.487061,425.320312 
	C557.453796,424.930206 553.160645,424.878265 551.930054,431.708344 
	C551.245056,435.510071 547.528198,437.969879 543.271484,438.145996 
	C540.162476,438.274658 539.255188,439.840668 539.349060,442.628632 
	C539.438782,445.291748 539.343384,447.960602 539.367737,450.626587 
	C539.393616,453.458435 538.391235,455.772278 535.349182,455.959167 
	C532.249390,456.149597 530.317444,454.153931 529.994812,451.137665 
	C529.677124,448.168671 529.699951,445.146545 529.791016,442.154358 
	C529.931702,437.531342 526.644775,438.360931 523.914429,438.313477 
	C521.067444,438.263977 517.968567,437.818268 518.206482,442.339844 
	C518.354980,445.162354 518.332031,448.014618 518.103455,450.830597 
	C517.861145,453.815399 516.231689,455.973572 513.065002,455.994232 
	C510.096375,456.013611 508.605560,453.886566 508.254425,451.165558 
	C507.936249,448.700073 507.716888,446.161346 507.941376,443.699341 
	C508.365570,439.047058 506.093475,438.216125 501.988403,438.179810 
	C497.611389,438.141083 495.841736,439.602173 496.270966,443.973724 
	C496.497742,446.283539 496.341766,448.636749 496.275665,450.968048 
	C496.184753,454.174805 494.432617,456.042938 491.278809,455.958801 
	C488.390594,455.881653 486.757233,454.088837 486.691406,451.089325 
	C486.665802,449.923218 486.586365,448.751099 486.666809,447.591095 
	C487.026794,442.398651 487.169128,437.800873 479.830200,437.205627 
	C476.174622,436.909119 473.925079,433.347107 473.279877,429.753082 
	C472.578094,425.844086 470.391327,425.026398 466.965820,425.300385 
	C464.814453,425.472473 462.632751,425.375977 460.470490,425.275177 
	C457.294037,425.127136 454.749634,423.866547 454.874176,420.292816 
	C454.986420,417.073486 457.327484,415.785339 460.349792,415.690582 
	C463.180237,415.601837 466.019745,415.672150 468.841187,415.472870 
	C470.695190,415.341949 472.626160,414.944672 472.557312,412.386932 
	C472.497681,410.172363 470.836365,409.564606 469.122620,409.553314 
	C455.460175,409.463379 441.797119,409.449585 428.134247,409.460297 
	C425.513336,409.462372 425.180878,411.782288 424.380371,413.550323 
	C413.656921,437.234558 385.723053,445.104218 364.423584,430.435547 
	C348.430145,419.421143 342.817719,397.438660 351.463287,379.673401 
	C360.209229,361.701874 379.947449,353.119232 398.804352,358.731384 
	C411.028656,362.369568 419.228790,370.270111 424.311127,381.607513 
	C425.679749,384.660522 427.340363,385.794525 430.670807,385.746552 
	C443.000122,385.568878 455.333618,385.686920 467.665436,385.666229 
	C469.979218,385.662354 472.616821,386.031067 472.644531,382.440277 
	C472.673859,378.641724 469.806427,379.490540 467.631378,379.390991 
	C465.136322,379.276825 462.633270,379.325806 460.133698,379.324402 
	C456.928680,379.322601 454.950165,377.667664 454.875000,374.555847 
	C454.795410,371.261017 457.181793,369.947357 460.150085,369.774414 
	C462.808472,369.619629 465.483948,369.606537 468.145691,369.702576 
	C470.861542,369.800598 472.343475,369.001434 472.918274,365.983368 
	C473.956604,360.531860 477.196899,356.978394 483.132935,356.840942 
	C486.083527,356.772583 486.763611,355.175476 486.674042,352.629089 
	C486.580414,349.966217 486.690918,347.296844 486.659973,344.630951 
	C486.623840,341.514557 487.933228,339.263763 491.162811,339.175140 
	C494.378571,339.086884 495.892090,341.394928 496.126343,344.358856 
	C496.349030,347.176422 496.357056,350.023926 496.257050,352.851105 
	C496.095581,357.418335 499.333160,356.752869 502.103210,356.768463 
	C504.903412,356.784241 507.956299,357.344971 507.976929,352.828491 
	C507.994904,348.889618 507.080017,344.774506 509.248444,341.078705 
	C509.635773,340.418610 510.511383,340.045044 511.527130,339.381775 
M403.509613,395.917877 
	C403.181244,394.629852 402.935944,393.313690 402.510956,392.058380 
	C399.890930,384.319000 391.016449,379.704681 383.225403,381.993927 
	C374.952881,384.424713 370.030151,392.884216 372.158356,401.012299 
	C374.261871,409.046143 381.177765,414.380676 388.449127,413.578064 
	C397.236511,412.608154 403.070679,406.111694 403.509613,395.917877 
M650.529236,387.019348 
	C649.418396,386.024200 648.392944,384.907867 647.181946,384.054962 
	C642.088684,380.467743 635.493103,380.384827 630.307190,383.746979 
	C624.994385,387.191376 621.741272,394.077423 622.851257,399.489502 
	C624.362793,406.859741 628.534973,411.733063 636.035950,413.364777 
	C641.711182,414.599335 647.963318,411.770142 651.517639,406.513977 
	C655.820862,400.150391 655.670593,394.691925 650.529236,387.019348 
z"/>
<path fill="#000000" opacity="1.000000" stroke="none" 
	d="
M303.726105,595.000000 
	C303.726410,556.050415 303.726410,517.600891 303.726410,479.395050 
	C305.650635,478.476685 306.360107,479.605408 307.225220,480.316315 
	C310.957397,483.383362 314.324951,487.120422 318.493622,489.380951 
	C326.200684,493.560150 327.625305,499.612885 327.557068,507.868774 
	C327.172943,554.352051 327.367249,600.840088 327.398102,647.326538 
	C327.399750,649.774780 326.953918,652.335083 328.413361,654.644409 
	C330.397644,654.620972 331.262604,653.013184 332.377838,651.893860 
	C345.900940,638.321289 359.359955,624.684814 372.907532,611.136780 
	C375.395508,608.648682 376.582764,606.395447 375.958954,602.433838 
	C373.918335,589.474243 381.011322,576.804688 392.194672,572.039795 
	C404.025116,566.999146 417.276062,570.113281 425.462799,580.548279 
	C433.015869,590.175659 433.023773,600.876282 427.865173,611.596985 
	C423.153046,621.389709 412.892242,626.682129 400.145355,625.054932 
	C395.015533,624.400085 392.140717,626.189026 388.975342,629.410461 
	C363.287109,655.552917 337.529694,681.627625 311.744751,707.674805 
	C309.683594,709.756897 308.037048,712.406616 303.725800,713.962036 
	C303.725800,674.092468 303.725800,634.796204 303.726105,595.000000 
M395.383270,601.958984 
	C397.792511,607.580322 405.372681,607.705566 408.641571,605.345703 
	C412.656311,602.447388 413.834747,597.273743 411.242920,592.982422 
	C408.932953,589.157837 403.947571,587.491272 400.002991,589.224976 
	C395.311676,591.286987 393.658630,595.344482 395.383270,601.958984 
z"/>
<path fill="#000000" opacity="1.000000" stroke="none" 
	d="
M426.497223,286.725342 
	C424.539337,287.366364 423.202148,286.562836 421.848938,285.961060 
	C413.816162,282.388855 405.907013,278.532471 397.386322,275.148132 
	C424.687836,257.961273 454.386871,247.738220 486.211578,243.798721 
	C537.218567,237.484650 584.551819,248.568680 629.336609,274.441925 
	C626.225525,277.651123 622.436523,277.724365 619.598633,279.511414 
	C607.967896,286.835571 597.273438,285.655243 584.308044,280.531128 
	C531.259338,259.565491 478.502533,262.664459 426.497223,286.725342 
z"/>
</svg>